<svg xmlns="http://www.w3.org/2000/svg" version="1.1" xmlns:xlink="http://www.w3.org/1999/xlink" width="512" height="512" x="0" y="0" viewBox="0 0 512.002 512.002" style="enable-background:new 0 0 512 512" xml:space="preserve" class=""><g><path d="M249.453 1.676 33.623 119.86a17.793 17.793 0 0 0-9.247 15.606v244.98c0 4.854 2.647 9.32 6.904 11.651L245.257 509.25a22.393 22.393 0 0 0 21.507 0l213.962-117.153a13.3 13.3 0 0 0 6.9-11.685V133.726c0-5.428-2.96-10.423-7.72-13.029L262.548 1.676a13.636 13.636 0 0 0-13.095 0z" style="" fill="#2858dd" data-original="#2858dd" class=""></path><path d="M244.676 508.937 31.26 392.096a13.322 13.322 0 0 1-6.924-11.685V138.397c0-6.066 6.498-9.917 11.819-7.004l212.048 116.093A15 15 0 0 1 256 260.645v241.581c.001 5.813-6.225 9.503-11.324 6.711z" style="" fill="#2858dd" data-original="#2858dd" class=""></path><path d="m269.986 507.481 210.755-115.385a13.322 13.322 0 0 0 6.924-11.685V140.2c0-6.877-7.367-11.243-13.399-7.94l-210.13 115.042A15.653 15.653 0 0 0 256 261.031v238.162c.001 7.179 7.689 11.734 13.986 8.288z" style="" fill="#1982e0" data-original="#1982e0" class=""></path><path d="M449.778 149.635v68.37c0 92.641-50.526 177.905-131.785 222.393l-61.992 33.94v29.496c0 5.089 5.45 8.318 9.914 5.875L477.26 394.002a20.019 20.019 0 0 0 10.406-17.559V136.225c0-5.089-5.45-8.318-9.914-5.875l-24.492 13.409a6.7 6.7 0 0 0-3.482 5.876z" style="" fill="#2664ef" data-original="#2664ef" class=""></path><path d="M474.369 117.644 262.547 1.675a13.632 13.632 0 0 0-13.093 0L36.352 118.345c-5.198 2.846-5.198 10.311 0 13.158L203.658 223.1l44.72 24.484a15.873 15.873 0 0 0 15.245 0L474.37 132.203c5.751-3.15 5.751-11.411-.001-14.559z" style="" fill="#29abe2" data-original="#29abe2" class=""></path><path d="m450.469 145.287 28.342-15.517c3.83-2.097 3.83-7.597 0-9.694L262.547 1.675a13.632 13.632 0 0 0-13.093 0l-7.124 3.901 208.139 139.711z" style="" fill="#2aa1f2" data-original="#2aa1f2" class=""></path></g></svg>